# xmcd
#
# Track frame offsets:
#	150
#	20027
#	36810
#	53908
#	64782
#	76529
#	89318
#	113726
#	127840
#	148945
#	165993
#
# Disc length: 2400 seconds
#
# Revision: 1
# Processed by: cddbd v1.5.2PL0 Copyright (c) Steve Scherf et al.
# Submitted via: audiograbber 1.83.01
#
DISCID=85095e0b
DTITLE=The Notting Hillbillies - Missing...
DYEAR=1990
DGENRE=Country
TTITLE0=Your Own Sweet
TTITLE1=Will You Miss Me
TTITLE2=Blues Star Away From Me
TTITLE3=Run Me
TTITLE4=Bewildered
TTITLE5=That's Where
TTITLE6=Railroad Worksong
TTITLE7=One Way Gal
TTITLE8=Feel Like Going Home
TTITLE9=Please Baby
TTITLE10=Weapon Of Prayer
EXTD=
EXTT0=
EXTT1=
EXTT2=
EXTT3=
EXTT4=
EXTT5=
EXTT6=
EXTT7=
EXTT8=
EXTT9=
EXTT10=
PLAYORDER=
